<?xml version="1.0" encoding="UTF-8" standalone="no"?>
<!-- Created with Inkscape (http://www.inkscape.org/) -->

<svg
   width="12"
   height="13"
   id="svg2"
   version="1.1"
   inkscape:version="1.1.2 (0a00cf5339, 2022-02-04, custom)"
   sodipodi:docname="close_pressed.svg"
   xmlns:inkscape="http://www.inkscape.org/namespaces/inkscape"
   xmlns:sodipodi="http://sodipodi.sourceforge.net/DTD/sodipodi-0.dtd"
   xmlns="http://www.w3.org/2000/svg"
   xmlns:svg="http://www.w3.org/2000/svg"
   xmlns:rdf="http://www.w3.org/1999/02/22-rdf-syntax-ns#"
   xmlns:cc="http://creativecommons.org/ns#"
   xmlns:dc="http://purl.org/dc/elements/1.1/">
  <defs
     id="defs4" />
  <sodipodi:namedview
     id="base"
     pagecolor="#ffffff"
     bordercolor="#666666"
     borderopacity="1.0"
     inkscape:pageopacity="0.0"
     inkscape:pageshadow="2"
     inkscape:zoom="22.627417"
     inkscape:cx="-0.8396893"
     inkscape:cy="6.4302523"
     inkscape:document-units="px"
     inkscape:current-layer="g4092"
     showgrid="true"
     fit-margin-top="0"
     fit-margin-left="0"
     fit-margin-right="0"
     fit-margin-bottom="0"
     inkscape:window-width="1920"
     inkscape:window-height="1007"
     inkscape:window-x="0"
     inkscape:window-y="0"
     inkscape:window-maximized="1"
     inkscape:pagecheckerboard="0" />
  <metadata
     id="metadata7">
    <rdf:RDF>
      <cc:Work
         rdf:about="">
        <dc:format>image/svg+xml</dc:format>
        <dc:type
           rdf:resource="http://purl.org/dc/dcmitype/StillImage" />
        <dc:title />
      </cc:Work>
    </rdf:RDF>
  </metadata>
  <g
     inkscape:label="Layer 1"
     inkscape:groupmode="layer"
     id="layer1"
     transform="translate(-671.14288,-651.57648)">
    <g
       transform="matrix(0.1265625,0,0,-0.1265625,672.07092,663.09636)"
       inkscape:label="ink_ext_XXXXXX"
       id="g4090">
      <g
         transform="scale(0.1,0.1)"
         id="g4092">
        <path
           id="path4244"
           style="fill:#6e26d3;fill-opacity:1;fill-rule:evenodd;stroke:none"
           d="m 433.33001,4.5675386 c 236.059,0 427.426,191.3674714 427.426,427.4254714 0,236.063 -191.367,427.43 -427.426,427.43 -236.066,0 -427.4335934,-191.367 -427.4335934,-427.43 0,-236.058 191.3675934,-427.4254714 427.4335934,-427.4254714"
           inkscape:connector-curvature="0" />
        <path
           id="path4246"
           style="fill:#6e26d3;fill-opacity:1;fill-rule:evenodd;stroke:none"
           d="m 433.33001,40.919109 c 215.98,0 391.07,175.093901 391.07,391.073901 0,215.989 -175.09,391.078 -391.07,391.078 -215.988,0 -391.078103,-175.089 -391.078103,-391.078 0,-215.98 175.090103,-391.073901 391.078103,-391.073901"
           inkscape:connector-curvature="0" />
        <path
           id="path4248"
           style="fill:#531da0;fill-opacity:1;fill-rule:evenodd;stroke:none"
           d="m 231.72501,280.71201 352.886,352.883 c 13.657,13.66 36,13.66 49.664,0 l 0.653,-0.656 c 13.66,-13.657 13.66,-36.004 0.004,-49.661 l -352.887,-352.882 c -13.66,-13.66 -36.004,-13.66 -49.66,0 l -0.66,0.652 c -13.657,13.66 -13.657,36.004 0,49.664"
           inkscape:connector-curvature="0" />
        <path
           id="path4250"
           style="fill:#531da0;fill-opacity:1;fill-rule:evenodd;stroke:none"
           d="m 282.04501,633.59501 352.883,-352.883 c 13.656,-13.656 13.656,-36.004 0,-49.664 l -0.657,-0.652 c -13.66,-13.66 -36.003,-13.66 -49.66,0 l -352.886,352.882 c -13.661,13.657 -13.661,36.004 0,49.661 l 0.656,0.656 c 13.66,13.66 36.004,13.66 49.664,0"
           inkscape:connector-curvature="0" />
      </g>
    </g>
  </g>
</svg>
