<?xml version="1.0" encoding="UTF-8" standalone="no"?>
<!-- Created with Inkscape (http://www.inkscape.org/) -->

<svg
   width="16"
   height="16"
   id="svg2"
   version="1.1"
   inkscape:version="1.1.2 (0a00cf5339, 2022-02-04, custom)"
   sodipodi:docname="close_prelight.svg"
   inkscape:export-filename="/home/lara/.themes/Dracula/assets/close_prelight.png"
   inkscape:export-xdpi="96"
   inkscape:export-ydpi="96"
   xmlns:inkscape="http://www.inkscape.org/namespaces/inkscape"
   xmlns:sodipodi="http://sodipodi.sourceforge.net/DTD/sodipodi-0.dtd"
   xmlns="http://www.w3.org/2000/svg"
   xmlns:svg="http://www.w3.org/2000/svg"
   xmlns:rdf="http://www.w3.org/1999/02/22-rdf-syntax-ns#"
   xmlns:cc="http://creativecommons.org/ns#"
   xmlns:dc="http://purl.org/dc/elements/1.1/">
  <defs
     id="defs4" />
  <sodipodi:namedview
     id="base"
     pagecolor="#ffffff"
     bordercolor="#666666"
     borderopacity="1.0"
     inkscape:pageopacity="0.0"
     inkscape:pageshadow="2"
     inkscape:zoom="21.298361"
     inkscape:cx="3.6622536"
     inkscape:cy="7.0662714"
     inkscape:document-units="px"
     inkscape:current-layer="g4092"
     showgrid="true"
     fit-margin-top="0"
     fit-margin-left="0"
     fit-margin-right="0"
     fit-margin-bottom="0"
     inkscape:window-width="1920"
     inkscape:window-height="1007"
     inkscape:window-x="0"
     inkscape:window-y="0"
     inkscape:window-maximized="1"
     inkscape:document-rotation="0"
     inkscape:pagecheckerboard="0" />
  <metadata
     id="metadata7">
    <rdf:RDF>
      <cc:Work
         rdf:about="">
        <dc:format>image/svg+xml</dc:format>
        <dc:type
           rdf:resource="http://purl.org/dc/dcmitype/StillImage" />
        <dc:title />
      </cc:Work>
    </rdf:RDF>
  </metadata>
  <g
     inkscape:label="Layer 1"
     inkscape:groupmode="layer"
     id="layer1"
     transform="translate(-671.14288,-648.57648)">
    <g
       transform="matrix(0.1265625,0,0,-0.1265625,672.07092,663.09636)"
       inkscape:label="ink_ext_XXXXXX"
       id="g4090">
      <g
         transform="scale(0.1,0.1)"
         id="g4092">
        <g
           id="g1700">
          <path
             id="path4094"
             style="opacity:1;mix-blend-mode:normal;fill:#6e26d3;fill-opacity:1;fill-rule:evenodd;stroke:none"
             d="m 558.77708,-37.935271 c 305.45607,0 553.08142,247.625871 553.08142,553.085831 0,305.46125 -247.62535,553.08674 -553.08142,553.08674 -305.46513,0 -553.0913269,-247.62549 -553.0913269,-553.08674 0,-305.45996 247.6261969,-553.085831 553.0913269,-553.085831"
             inkscape:connector-curvature="0" />
          <path
             inkscape:connector-curvature="0"
             d="m 558.77747,1.5676657 c 283.63697,0 513.57493,229.9429343 513.57493,513.5851743 0,283.64354 -229.93796,513.58156 -513.57493,513.58156 -283.64749,0 -513.585571,-229.93802 -513.585571,-513.58156 0,-283.64224 229.938081,-513.5851743 513.585571,-513.5851743"
             style="fill:#caa9fa;fill-opacity:1;fill-rule:evenodd;stroke:none;stroke-width:1.10617;stroke-miterlimit:4;stroke-dasharray:none"
             id="path4096" />
          <path
             inkscape:connector-curvature="0"
             id="path4098"
             d="m 327.53978,793.46248 c -11.82062,0 -23.65919,-4.60888 -32.62873,-13.57841 l -0.81065,-0.81066 c -17.94039,-17.93907 -17.94039,-47.31838 0,-65.25746 L 492.71007,515.20628 294.1004,316.39397 c -17.93514,-17.93385 -17.93514,-47.11576 0,-65.05478 l 0.81065,-1.01337 c 17.93382,-17.93902 47.3184,-17.93902 65.25746,0 L 558.77818,448.9355 757.38785,250.32582 c 17.93513,-17.93902 47.31838,-17.93902 65.25746,0 l 0.81065,1.01337 c 17.93382,17.93383 17.93382,47.12093 0,65.05478 L 624.84629,515.20628 823.45596,713.81595 c 17.93382,17.93908 17.93908,47.32365 0,65.25746 l -0.81065,0.81066 c -17.94432,17.93382 -47.32233,17.93382 -65.25746,0 L 558.77818,581.2744 360.16851,779.88407 c -8.96954,8.96953 -20.80811,13.57841 -32.62873,13.57841 z"
             style="fill:#531da0;fill-opacity:1;fill-rule:evenodd;stroke:none;stroke-width:1.10617;stroke-miterlimit:4;stroke-dasharray:none" />
        </g>
      </g>
    </g>
  </g>
</svg>
